<svg width="91" height="45" viewBox="0 0 91 45" fill="none" xmlns="http://www.w3.org/2000/svg">
<rect width="6.14962" height="3.29101" rx="1.6455" transform="matrix(0.482508 -0.875891 0.875991 0.482327 8.61133 43.4126)" fill="#D4525D"/>
<rect width="6.14962" height="3.29101" rx="1.6455" transform="matrix(0.482515 -0.875888 0.875995 0.48232 14.3528 43.4121)" fill="#D4525D"/>
<rect width="6.14962" height="3.29101" rx="1.6455" transform="matrix(0.482515 -0.875888 0.875995 0.48232 20.0942 43.4121)" fill="#D4525D"/>
<rect width="6.14962" height="3.29101" rx="1.6455" transform="matrix(0.482515 -0.875888 0.875995 0.48232 25.8354 43.4121)" fill="#D4525D"/>
<path d="M8.86089 14.8256C8.80108 14.7658 8.10734 14.8256 7.24616 14.8256C5.62704 14.8856 3.31963 15.6195 2.15296 16.8607C0.527241 18.5903 0 21.001 0 22.6005C0 26.0085 1.168 28.7299 3.05002 29.7753C4.66474 30.6721 7.35594 30.2536 7.89418 29.7753C8.07359 30.6721 8.89676 32.045 9.75794 33.48C12.6286 37.4261 17.2202 36.5913 21.8884 36.5913C26.7326 36.5913 30.8591 35.8738 32.2944 30.6721C32.8674 28.5955 32.3815 23.4321 34.2679 20.9862C36.0277 18.7043 38.9819 17.3552 40.0788 16.1432C40.7366 15.4855 40.5094 14.1799 40.0788 13.7494C38.787 12.7449 29.015 12.8526 24.2904 13.0319C22.3169 13.0319 14.0779 13.5287 12.9874 13.57C8.25301 13.7494 9.57854 14.4669 8.86089 14.8256Z" fill="#589290"/>
<path d="M8.07396 22.7799C8.07396 24.2293 7.82325 26.1972 7.17689 27.0847C6.6305 27.835 5.75018 27.6228 5.02393 27.6228C3.43854 27.6228 2.15332 25.4546 2.15332 22.7799C2.15332 21.2415 2.38753 20.2308 3.05039 19.1925C3.54005 18.4254 4.35036 17.5781 5.02393 17.5781C5.92433 17.5781 7.36823 17.56 7.89454 18.6544C8.29494 19.4869 8.07396 21.6242 8.07396 22.7799Z" fill="white"/>
<rect x="19.3777" y="15.4258" width="4.66474" height="7.53351" rx="2.33237" fill="white"/>
<rect x="20.3826" y="16.8604" width="2.51178" height="4.30486" rx="1.25589" fill="#589290"/>
<path d="M21.643 19.5948L20.2535 20.4898L20.2101 18.8202L21.643 19.5948Z" fill="white"/>
<rect x="25.8369" y="15.4258" width="4.66474" height="7.53351" rx="2.33237" fill="white"/>
<rect x="26.8408" y="16.8604" width="2.51178" height="4.30486" rx="1.25589" fill="#589290"/>
<path d="M28.1032 19.9532L26.7137 20.8482L26.6703 19.1786L28.1032 19.9532Z" fill="white"/>
<path d="M9.28051 10.5951C9.36695 9.62675 10.1666 8.87733 11.1369 8.81704C12.2983 8.74487 13.4367 8.64801 14.4559 8.60988C19.0877 8.43661 22.7527 8.35474 27.0148 8.25114C29.4755 8.19133 32.0755 8.30783 35.0466 8.26783C35.607 8.26028 36.1423 8.50555 36.4962 8.94021C37.452 10.1141 36.6319 11.8678 35.1182 11.8772C29.2943 11.9136 24.0117 11.8679 15.7117 12.3311C13.5047 12.4812 12.3048 12.5788 11.3887 12.6671C10.1888 12.7827 9.17334 11.7957 9.28051 10.5951Z" fill="#D4525D"/>
<path d="M22.1754 0.469025C24.7836 0.24891 26.7508 2.79215 25.8823 5.26129L25.1205 7.42722C24.7201 8.56556 23.6448 9.3272 22.4381 9.3272C21.1962 9.3272 20.098 8.52122 19.7255 7.33647L19.037 5.14615C18.344 2.94181 19.8729 0.663345 22.1754 0.469025Z" fill="#D4525D"/>
<g clip-path="url(#clip0_1201_144)">
<path d="M51.2225 22.0662H54.7105C55.1658 22.0662 55.5399 22.115 55.8326 22.2126C56.1253 22.2939 56.3529 22.4158 56.5156 22.5784C56.6781 22.7247 56.7839 22.9035 56.8326 23.1148C56.8977 23.3099 56.9302 23.5294 56.9302 23.7733C56.9302 23.9684 56.8977 24.1716 56.8326 24.3829C56.7839 24.578 56.6781 24.7569 56.5156 24.9194C56.3529 25.0657 56.1253 25.1877 55.8326 25.2852C55.5399 25.3827 55.1658 25.4315 54.7105 25.4315H51.2225V30.4062H55.2716C55.7269 30.4062 56.1009 30.455 56.3936 30.5526C56.6863 30.6501 56.9139 30.772 57.0766 30.9184C57.2392 31.0809 57.3449 31.2598 57.3937 31.4548C57.4587 31.6662 57.4912 31.8694 57.4912 32.0645C57.4912 32.3084 57.4587 32.5278 57.3937 32.7229C57.3449 32.9343 57.2392 33.1131 57.0766 33.2594C56.9139 33.422 56.6863 33.5439 56.3936 33.6252C56.1009 33.7227 55.7269 33.7715 55.2716 33.7715H49.2467C48.7914 33.7715 48.4337 33.7227 48.1735 33.6252C47.9133 33.5439 47.7101 33.422 47.5637 33.2594C47.4336 33.1131 47.3523 32.9343 47.3198 32.7229C47.2873 32.5278 47.271 32.3084 47.271 32.0645V15.5796C47.271 15.3357 47.2873 15.1081 47.3198 14.8968C47.3523 14.6692 47.4336 14.466 47.5637 14.2871C47.7101 14.1083 47.9133 13.9701 48.1735 13.8726C48.4337 13.7588 48.7914 13.7019 49.2467 13.7019H54.7837C55.239 13.7019 55.613 13.7506 55.9058 13.8482C56.1985 13.9295 56.4261 14.0514 56.5887 14.214C56.7513 14.3603 56.857 14.5391 56.9058 14.7505C56.9708 14.9456 57.0034 15.165 57.0034 15.4089C57.0034 15.604 56.9708 15.8072 56.9058 16.0185C56.857 16.2136 56.7513 16.3925 56.5887 16.555C56.4261 16.7013 56.1985 16.8233 55.9058 16.9208C55.613 17.0184 55.239 17.0671 54.7837 17.0671H51.2225V22.0662ZM62.1989 15.5796C62.1989 14.7667 62.394 14.214 62.7843 13.9213C63.1908 13.6125 63.6542 13.458 64.1746 13.458C64.4348 13.458 64.6787 13.4905 64.9064 13.5556C65.1503 13.6206 65.3617 13.7344 65.5406 13.897C65.7194 14.0595 65.8658 14.279 65.9796 14.5554C66.0934 14.8318 66.1504 15.1732 66.1504 15.5796V32.2352C66.1504 32.6579 66.0934 33.0074 65.9796 33.2838C65.8658 33.5602 65.7194 33.7797 65.5406 33.9422C65.3617 34.1048 65.1503 34.2186 64.9064 34.2836C64.6787 34.3487 64.4348 34.3812 64.1746 34.3812C63.9144 34.3812 63.6624 34.3487 63.4185 34.2836C63.1908 34.2186 62.9794 34.1048 62.7843 33.9422C62.6054 33.7797 62.459 33.5602 62.3452 33.2838C62.2477 33.0074 62.1989 32.6579 62.1989 32.2352V15.5796ZM82.1319 27.4068C82.1319 27.9758 82.3026 28.4798 82.6441 28.9187C83.002 29.3577 83.4491 29.7316 83.9857 30.0405C84.5387 30.3494 85.1565 30.6013 85.8395 30.7964C86.5224 30.9915 87.2054 31.1297 87.8884 31.211C88.5226 31.2923 88.9941 31.4955 89.3031 31.8206C89.6122 32.162 89.7258 32.6416 89.6446 33.2594C89.5958 33.5846 89.4983 33.8447 89.3519 34.0398C89.2219 34.2348 89.0592 34.3893 88.8641 34.5031C88.6689 34.6169 88.4494 34.6901 88.2055 34.7226C87.9616 34.7551 87.7176 34.7632 87.4737 34.747C86.1078 34.6332 84.7986 34.2999 83.5466 33.7471C82.2946 33.2106 81.205 32.5441 80.2781 31.7475C79.8227 32.1377 79.2944 32.5034 78.6926 32.8448C78.1072 33.1863 77.4811 33.487 76.8144 33.7471C76.1639 34.0235 75.4892 34.243 74.7899 34.4055C74.0906 34.5844 73.3995 34.6982 72.7166 34.747C72.4726 34.7632 72.2287 34.7551 71.9848 34.7226C71.7409 34.6901 71.5214 34.6169 71.3262 34.5031C71.1311 34.3893 70.9603 34.2348 70.814 34.0398C70.6839 33.8447 70.5945 33.5846 70.5457 33.2594C70.4644 32.6416 70.5782 32.162 70.8872 31.8206C71.1961 31.4955 71.6677 31.2923 72.3019 31.211C73.0011 31.1297 73.6922 30.9997 74.3752 30.8208C75.0582 30.6583 75.668 30.4225 76.2046 30.1136C76.7576 29.8047 77.2047 29.4308 77.5462 28.9919C77.8877 28.5367 78.0665 28.0002 78.0828 27.3824V27.0654C78.0828 26.5777 78.2943 26.2119 78.717 25.968C79.1397 25.7241 79.6032 25.6022 80.1074 25.6022C80.6115 25.6022 81.075 25.7241 81.4977 25.968C81.9204 26.2119 82.1319 26.5777 82.1319 27.0654V27.4068ZM85.1321 15.5796C85.1321 14.7667 85.3272 14.214 85.7175 13.9213C86.1241 13.6125 86.5876 13.458 87.1078 13.458C87.3681 13.458 87.612 13.4905 87.8396 13.5556C88.0835 13.6206 88.295 13.7344 88.4738 13.897C88.6526 14.0595 88.7989 14.279 88.9128 14.5554C89.0268 14.8318 89.0836 15.1732 89.0836 15.5796V24.3585C89.0836 24.7812 89.0268 25.1308 88.9128 25.4071C88.7989 25.6835 88.6526 25.903 88.4738 26.0655C88.295 26.2281 88.0835 26.3419 87.8396 26.4069C87.612 26.472 87.3681 26.5045 87.1078 26.5045C86.8476 26.5045 86.5956 26.472 86.3517 26.4069C86.1241 26.3419 85.9126 26.2281 85.7175 26.0655C85.5387 25.903 85.3924 25.6835 85.2785 25.4071C85.1809 25.1308 85.1321 24.7812 85.1321 24.3585V15.5796Z" fill="#589290"/>
<path d="M70.5984 15.2869C70.5984 14.5391 70.7935 14.0432 71.1838 13.7994C71.5741 13.5392 72.1188 13.4092 72.8181 13.4092H79.1112C79.5665 13.4092 79.9242 13.458 80.1844 13.5555C80.4446 13.6368 80.6398 13.7587 80.7698 13.9213C80.9162 14.0676 81.0056 14.2464 81.0381 14.4578C81.0707 14.6529 81.0869 14.8723 81.0869 15.1162V22.4808C81.0869 22.8872 81.03 23.2286 80.9162 23.505C80.8186 23.7651 80.6723 23.9764 80.4771 24.139C80.282 24.3016 80.0543 24.4235 79.7942 24.5048C79.534 24.5698 79.2494 24.6023 78.9404 24.6023H72.5741C72.1188 24.6023 71.7611 24.5617 71.5009 24.4804C71.2407 24.3829 71.0374 24.2609 70.8911 24.1146C70.761 23.952 70.6797 23.7732 70.6472 23.5781C70.6147 23.3668 70.5984 23.1392 70.5984 22.8953V15.2869ZM74.5499 16.6525V21.359H77.1354V16.6525H74.5499Z" fill="#D4525D"/>
</g>
<defs>
<clipPath id="clip0_1201_144">
<rect width="42.9631" height="21.6148" fill="white" transform="translate(47.0381 13.4092)"/>
</clipPath>
</defs>
</svg>
